<svg width="1460" height="960" viewBox="0 0 1460 960" fill="none" xmlns="http://www.w3.org/2000/svg">
<path d="M183.912 921.2H196.297V950.05H185.114V931.66H115.857L115.737 950.05H104.556L104.676 921.2H108.764C114.054 920.87 117.782 916.71 119.946 908.69C122.11 900.59 123.433 889.21 123.914 874.54L124.756 847.49H183.912V921.2ZM347.648 846.53C356.065 846.53 363.68 848.42 370.493 852.18C377.307 855.87 382.638 861 386.485 867.57C390.333 874.07 392.257 881.4 392.257 889.58C392.257 897.75 390.333 905.13 386.485 911.7C382.638 918.19 377.307 923.32 370.493 927.09C363.68 930.78 356.065 932.62 347.648 932.62C339.152 932.62 331.497 930.78 324.684 927.09C317.87 923.32 312.499 918.15 308.571 911.58C304.724 905.01 302.8 897.67 302.8 889.58C302.8 881.48 304.724 874.15 308.571 867.57C312.499 861 317.87 855.87 324.684 852.18C331.497 848.42 339.152 846.53 347.648 846.53ZM703.53 846.53C710.1 846.53 716.11 847.65 721.56 849.9C727.02 852.06 731.66 855.31 735.51 859.64L727.7 867.21C721.36 860.56 713.47 857.23 704.01 857.23C697.76 857.23 692.11 858.64 687.06 861.44C682.01 864.25 678.04 868.13 675.15 873.1C672.347 877.99 670.944 883.49 670.944 889.58C670.944 895.67 672.347 901.2 675.15 906.17C678.04 911.06 682.01 914.91 687.06 917.71C692.11 920.52 697.76 921.92 704.01 921.92C713.39 921.92 721.28 918.55 727.7 911.82L735.51 919.4C731.66 923.72 726.98 927.01 721.44 929.25C715.99 931.5 709.98 932.62 703.41 932.62C694.99 932.62 687.38 930.78 680.56 927.09C673.83 923.32 668.54 918.19 664.692 911.7C660.845 905.13 658.921 897.75 658.921 889.58C658.921 881.4 660.845 874.07 664.692 867.57C668.54 861 673.87 855.87 680.68 852.18C687.5 848.42 695.11 846.53 703.53 846.53ZM1212.04 846.53C1220.13 846.53 1227.43 848.42 1233.92 852.18C1240.41 855.87 1245.5 861 1249.19 867.57C1252.96 874.07 1254.84 881.4 1254.84 889.58C1254.84 897.75 1252.96 905.13 1249.19 911.7C1245.5 918.19 1240.41 923.32 1233.92 927.09C1227.43 930.78 1220.13 932.62 1212.04 932.62C1204.5 932.62 1197.65 930.98 1191.47 927.69C1185.3 924.41 1180.29 919.88 1176.45 914.11C1172.6 908.33 1170.31 901.76 1169.59 894.39H1154.2V931.66H1142.3V847.49H1154.2V883.56H1169.71C1170.59 876.43 1172.96 870.06 1176.81 864.45C1180.73 858.84 1185.74 854.47 1191.84 851.34C1197.93 848.14 1204.66 846.53 1212.04 846.53ZM1405.32 846.53C1413.73 846.53 1421.35 848.42 1428.16 852.18C1434.97 855.87 1440.3 861 1444.15 867.57C1448 874.07 1449.92 881.4 1449.92 889.58C1449.92 897.75 1448 905.13 1444.15 911.7C1440.3 918.19 1434.97 923.32 1428.16 927.09C1421.35 930.78 1413.73 932.62 1405.32 932.62C1396.82 932.62 1389.16 930.78 1382.35 927.09C1375.54 923.32 1370.17 918.15 1366.24 911.58C1362.39 905.01 1360.47 897.67 1360.47 889.58C1360.47 881.48 1362.39 874.15 1366.24 867.57C1370.17 861 1375.54 855.87 1382.35 852.18C1389.16 848.42 1396.82 846.53 1405.32 846.53ZM97.6129 931.66H84.9879L75.7289 910.61H31.0019L21.7429 931.66H9.35791L47.4739 847.49H59.3779L97.6129 931.66ZM252.532 847.49C261.75 847.49 268.925 849.37 274.055 853.14C279.265 856.83 281.87 862.16 281.87 869.13C281.87 873.7 280.708 877.59 278.384 880.8C276.139 884 272.933 886.41 268.765 888.01C274.456 889.37 278.744 891.82 281.63 895.34C284.596 898.79 286.079 903.24 286.079 908.69C286.079 915.98 283.393 921.64 278.022 925.64C272.732 929.65 264.997 931.66 254.817 931.66H216.341V847.49H252.532ZM427.084 884.04H444.879L471.331 847.49H484.196L454.137 888.25L485.64 931.66H471.933L444.639 894.62H427.084V931.66H415.301V847.49H427.084V884.04ZM576.987 931.66H564.362L555.104 910.61H510.376L501.118 931.66H488.733L526.849 847.49H538.752L576.987 931.66ZM648.728 857.95H619.871V931.66H608.088V857.95H579.351V847.49H648.728V857.95ZM767.59 876.83H792.6C802.62 876.83 810.27 879.07 815.56 883.56C820.93 888.05 823.62 894.66 823.62 903.4C823.62 912.62 820.73 919.63 814.96 924.44C809.27 929.25 801.09 931.66 790.43 931.66H755.68V847.49H767.59V876.83ZM856.79 884.04H874.59L901.04 847.49H913.9L883.84 888.25L915.35 931.66H901.64L874.34 894.62H856.79V931.66H845.01V847.49H856.79V884.04ZM990.67 857.95H943.3V883.8H985.5V894.02H943.3V921.2H992.36V931.66H931.28V847.49H990.67V857.95ZM1114.23 857.71H1062.65V881.76H1088.86C1098.88 881.76 1106.49 883.84 1111.7 888.01C1116.91 892.18 1119.52 898.19 1119.52 906.05C1119.52 914.3 1116.67 920.63 1110.98 925.04C1105.37 929.45 1097.32 931.66 1086.82 931.66H1050.74V847.49H1114.23V857.71ZM1310.83 847.49C1321.73 847.49 1330.3 850.1 1336.56 855.31C1342.81 860.52 1345.94 867.69 1345.94 876.83C1345.94 885.97 1342.81 893.14 1336.56 898.35C1330.3 903.56 1321.73 906.17 1310.83 906.17H1290.03V931.66H1278V847.49H1310.83ZM228.245 922.16H254.576C267.482 922.16 273.935 917.35 273.935 907.73C273.934 902.92 272.291 899.39 269.005 897.15C265.799 894.82 260.989 893.66 254.576 893.66H228.245V922.16ZM767.59 922.16H789.95C796.93 922.16 802.26 920.59 805.94 917.47C809.71 914.26 811.59 909.65 811.59 903.64C811.59 892.1 804.38 886.33 789.95 886.33H767.59V922.16ZM1062.65 922.16H1086.33C1093.23 922.16 1098.48 920.83 1102.08 918.19C1105.69 915.54 1107.5 911.66 1107.5 906.53C1107.5 896.35 1100.44 891.26 1086.33 891.26H1062.65V922.16ZM347.648 857.23C341.476 857.23 335.865 858.64 330.815 861.44C325.846 864.25 321.918 868.13 319.032 873.1C316.227 877.99 314.824 883.49 314.824 889.58C314.824 895.67 316.227 901.2 319.032 906.17C321.918 911.06 325.846 914.91 330.815 917.71C335.865 920.52 341.476 921.92 347.648 921.92C353.821 921.92 359.352 920.52 364.241 917.71C369.211 914.91 373.099 911.06 375.904 906.17C378.79 901.2 380.232 895.67 380.232 889.58C380.232 883.49 378.79 877.99 375.904 873.1C373.099 868.13 369.211 864.25 364.241 861.44C359.352 858.64 353.821 857.23 347.648 857.23ZM1405.32 857.23C1399.14 857.23 1393.53 858.64 1388.48 861.44C1383.51 864.25 1379.59 868.13 1376.7 873.1C1373.89 877.99 1372.49 883.49 1372.49 889.58C1372.49 895.67 1373.89 901.2 1376.7 906.17C1379.59 911.06 1383.51 914.91 1388.48 917.71C1393.53 920.52 1399.14 921.92 1405.32 921.92C1411.49 921.92 1417.02 920.52 1421.91 917.71C1426.88 914.91 1430.77 911.06 1433.57 906.17C1436.46 901.2 1437.9 895.67 1437.9 889.58C1437.9 883.49 1436.46 877.99 1433.57 873.1C1430.77 868.13 1426.88 864.25 1421.91 861.44C1417.02 858.64 1411.49 857.23 1405.32 857.23ZM1212.04 857.35C1206.34 857.35 1201.17 858.76 1196.52 861.56C1191.88 864.29 1188.19 868.09 1185.46 872.98C1182.82 877.87 1181.5 883.41 1181.5 889.58C1181.5 895.75 1182.82 901.28 1185.46 906.17C1188.19 911.06 1191.88 914.91 1196.52 917.71C1201.17 920.44 1206.34 921.8 1212.04 921.8C1217.81 921.8 1223.02 920.44 1227.67 917.71C1232.4 914.91 1236.08 911.06 1238.73 906.17C1241.45 901.28 1242.82 895.75 1242.82 889.58C1242.82 883.41 1241.45 877.87 1238.73 872.98C1236.08 868.09 1232.4 864.29 1227.67 861.56C1223.02 858.76 1217.81 857.35 1212.04 857.35ZM134.494 875.63C134.093 887.49 133.132 897.31 131.609 905.08C130.167 912.86 127.801 918.23 124.515 921.2H172.009V857.95H135.096L134.494 875.63ZM35.2099 901H71.5209L53.3649 859.75L35.2099 901ZM514.585 901H550.896L532.74 859.75L514.585 901ZM1290.03 895.71H1310.46C1318.08 895.71 1323.89 894.1 1327.9 890.9C1331.91 887.61 1333.91 882.92 1333.91 876.83C1333.91 870.74 1331.91 866.09 1327.9 862.88C1323.89 859.59 1318.08 857.95 1310.46 857.95H1290.03V895.71ZM228.245 884.52H251.691C257.543 884.52 261.991 883.36 265.037 881.04C268.163 878.71 269.726 875.31 269.727 870.82C269.727 866.33 268.163 862.92 265.037 860.6C261.911 858.19 257.462 856.99 251.691 856.99H228.245V884.52ZM700.85 703.81C707.02 703.81 712.55 705.17 717.44 707.89C722.33 710.62 726.14 714.43 728.87 719.32C731.67 724.21 733.07 729.86 733.07 736.27C733.07 742.68 731.67 748.37 728.87 753.34C726.14 758.23 722.33 762.04 717.44 764.77C712.55 767.49 707.02 768.85 700.85 768.85C696.28 768.85 692.07 767.97 688.22 766.21C684.46 764.45 681.25 761.88 678.61 758.51V791.46H667.063V704.41H678.12V714.51C680.69 710.98 683.94 708.33 687.86 706.57C691.79 704.73 696.12 703.81 700.85 703.81ZM1012.35 703.81C1018.52 703.81 1024.05 705.17 1028.94 707.89C1033.83 710.62 1037.64 714.43 1040.36 719.32C1043.17 724.21 1044.57 729.86 1044.57 736.27C1044.57 742.68 1043.17 748.37 1040.36 753.34C1037.64 758.23 1033.83 762.04 1028.94 764.77C1024.05 767.49 1018.52 768.85 1012.35 768.85C1007.78 768.85 1003.57 767.97 999.72 766.21C995.96 764.45 992.75 761.88 990.1 758.51V791.46H978.56V704.41H989.62V714.51C992.19 710.98 995.43 708.33 999.36 706.57C1003.29 704.73 1007.62 703.81 1012.35 703.81ZM420.091 703.81C428.908 703.81 435.641 705.97 440.29 710.3C445.019 714.63 447.385 721.08 447.385 729.66V768.13H436.442V759.72C434.519 762.68 431.754 764.97 428.146 766.57C424.62 768.09 420.411 768.85 415.521 768.85C408.388 768.85 402.657 767.13 398.328 763.68C394.08 760.24 391.955 755.71 391.955 750.1C391.955 744.49 393.999 740 398.087 736.63C402.175 733.18 408.668 731.46 417.565 731.46H435.842V729.18C435.842 724.21 434.398 720.4 431.513 717.75C428.627 715.11 424.379 713.79 418.768 713.79C415 713.79 411.313 714.43 407.706 715.71C404.099 716.91 401.053 718.56 398.568 720.64L393.759 711.98C397.045 709.34 400.973 707.33 405.542 705.97C410.111 704.53 414.961 703.81 420.091 703.81ZM615.377 703.81C624.194 703.81 630.928 705.97 635.577 710.3C640.306 714.63 642.671 721.08 642.671 729.66V768.13H631.729V759.72C629.806 762.68 627.04 764.97 623.433 766.57C619.906 768.09 615.697 768.85 610.808 768.85C603.674 768.85 597.943 767.13 593.614 763.68C589.366 760.24 587.241 755.71 587.241 750.1C587.241 744.49 589.286 740 593.374 736.63C597.462 733.18 603.955 731.46 612.853 731.46H631.128V729.18C631.128 724.21 629.685 720.4 626.8 717.75C623.914 715.11 619.666 713.79 614.055 713.79C610.287 713.79 606.599 714.43 602.992 715.71C599.385 716.91 596.339 718.56 593.854 720.64L589.045 711.98C592.331 709.34 596.259 707.33 600.828 705.97C605.397 704.53 610.247 703.81 615.377 703.81ZM925.55 703.81C931.64 703.81 937.05 705.21 941.78 708.01C946.59 710.74 950.31 714.59 952.96 719.56C955.68 724.53 957.05 730.22 957.05 736.63C957.05 737.51 956.97 738.67 956.81 740.12H905.11C905.83 745.73 908.27 750.26 912.44 753.7C916.69 757.07 921.94 758.75 928.19 758.75C935.81 758.75 941.94 756.19 946.59 751.06L952.96 758.51C950.07 761.88 946.47 764.45 942.14 766.21C937.89 767.97 933.12 768.85 927.83 768.85C921.1 768.85 915.13 767.49 909.92 764.77C904.7 761.96 900.66 758.07 897.77 753.1C894.97 748.13 893.56 742.52 893.56 736.27C893.56 730.1 894.93 724.53 897.65 719.56C900.46 714.59 904.26 710.74 909.07 708.01C913.96 705.21 919.45 703.81 925.55 703.81ZM381.956 714.51H358.63V768.13H347.087V714.51H323.761V704.41H381.956V714.51ZM566.71 768.13H555.167V714.51H519.217V768.13H507.674V704.41H566.71V768.13ZM798.6 714.51H775.27V768.13H763.73V714.51H740.4V704.41H798.6V714.51ZM825.55 731.46H861.86V704.41H873.4V768.13H861.86V741.44H825.55V768.13H814.01V704.41H825.55V731.46ZM1076.49 750.82L1115.57 704.41H1126.03V768.13H1114.49V721.72L1075.53 768.13H1064.95V704.41H1076.49V750.82ZM418.047 739.76C408.268 739.76 403.378 743.04 403.378 749.62C403.378 752.82 404.621 755.35 407.105 757.19C409.59 759.03 413.037 759.96 417.445 759.96C421.854 759.96 425.662 759 428.868 757.07C432.074 755.07 434.399 752.26 435.842 748.65V739.76H418.047ZM613.333 739.76C603.554 739.76 598.664 743.04 598.664 749.62C598.664 752.82 599.907 755.35 602.392 757.19C604.876 759.03 608.323 759.96 612.731 759.96C617.14 759.96 620.948 759 624.154 757.07C627.361 755.07 629.685 752.26 631.128 748.65V739.76H613.333ZM699.89 713.91C695.88 713.91 692.23 714.87 688.95 716.79C685.74 718.64 683.17 721.24 681.25 724.61C679.41 727.97 678.49 731.86 678.49 736.27C678.49 740.68 679.41 744.61 681.25 748.05C683.09 751.42 685.66 754.07 688.95 755.99C692.23 757.83 695.88 758.75 699.89 758.75C703.98 758.75 707.62 757.83 710.83 755.99C714.12 754.07 716.68 751.42 718.52 748.05C720.45 744.61 721.41 740.68 721.41 736.27C721.41 731.86 720.45 727.97 718.52 724.61C716.68 721.16 714.12 718.52 710.83 716.67C707.62 714.83 703.98 713.91 699.89 713.91ZM1011.39 713.91C1007.38 713.91 1003.73 714.87 1000.44 716.79C997.24 718.64 994.67 721.24 992.75 724.61C990.91 727.97 989.98 731.86 989.98 736.27C989.98 740.68 990.91 744.61 992.75 748.05C994.59 751.42 997.16 754.07 1000.44 755.99C1003.73 757.83 1007.38 758.75 1011.39 758.75C1015.47 758.75 1019.12 757.83 1022.33 755.99C1025.61 754.07 1028.18 751.42 1030.02 748.05C1031.95 744.61 1032.91 740.68 1032.91 736.27C1032.91 731.86 1031.95 727.97 1030.02 724.61C1028.18 721.16 1025.61 718.52 1022.33 716.67C1019.12 714.83 1015.47 713.91 1011.39 713.91ZM925.55 713.54C920.02 713.54 915.37 715.23 911.6 718.59C907.91 721.96 905.75 726.37 905.11 731.82H945.99C945.36 726.62 943.28 722.36 939.72 719.03L939.02 718.4C935.4 715.16 930.9 713.55 925.55 713.54ZM230.774 518.088C243.231 518.088 254.397 520.726 264.272 526C274.26 531.274 282.06 538.568 287.671 547.883C293.394 557.197 296.256 567.69 296.256 579.361C296.256 591.032 293.394 601.525 287.671 610.839C282.06 620.153 274.26 627.448 264.272 632.723C254.397 637.997 243.231 640.634 230.774 640.634C218.318 640.634 207.096 637.997 197.108 632.723C187.233 627.448 179.433 620.153 173.71 610.839C168.099 601.525 165.293 591.032 165.293 579.361C165.293 567.69 168.099 557.197 173.71 547.883C179.433 538.569 187.233 531.274 197.108 526C207.096 520.726 218.318 518.088 230.774 518.088ZM896.87 638.277H864.05V546.873H830.21L829.54 566.062C828.98 582.896 827.57 596.587 825.33 607.136C823.2 617.684 819.49 625.876 814.22 631.712C808.95 637.435 801.48 640.297 791.83 640.297C787.34 640.297 782.29 639.624 776.68 638.277L778.53 611.008C779.99 611.344 781.51 611.513 783.08 611.513C787.46 611.513 790.82 609.773 793.18 606.294C795.54 602.815 797.22 597.99 798.23 591.817C799.24 585.533 799.91 577.397 800.25 567.409L801.93 520.445H896.87V638.277ZM46.4939 638.277H13.6699V520.445H46.4939V638.277ZM162.934 546.873H109.572V638.277H76.7479V520.445H163.103L162.934 546.873ZM372.992 520.445C383.653 520.445 392.911 522.24 400.767 525.831C408.622 529.31 414.683 534.36 418.947 540.981C423.212 547.49 425.344 555.178 425.344 564.043C425.344 572.908 423.212 580.596 418.947 587.104C414.683 593.613 408.622 598.663 400.767 602.254C392.911 605.733 383.653 607.473 372.992 607.473H352.456V638.277H319.126V520.445H372.992ZM570.022 588.451L610.422 520.445H637.86L638.196 638.277H607.392L607.224 575.826L576.924 626.662H562.11L531.811 577.173V638.277H501.175V520.445H528.612L570.022 588.451ZM760.72 546.199H701.3V566.062H753.65V590.976H701.3V612.522H762.91V638.277H668.31V520.445H760.72V546.199ZM959.95 557.983H987.22C1001.7 557.983 1012.86 561.237 1020.72 567.746C1028.57 574.143 1032.5 583.681 1032.5 596.362C1032.5 609.941 1028.13 620.322 1019.37 627.504C1010.62 634.686 998.44 638.277 982.84 638.277H927.13V520.445H959.95V557.983ZM1087.65 564.716H1133.09V520.445H1166.42V638.277H1133.09V592.322H1087.65V638.277H1054.32V520.445H1087.65V564.716ZM1229.62 589.629L1278.27 520.445H1309.58V638.277H1276.75V569.261L1228.27 638.277H1196.79V520.445H1229.62V589.629ZM1372.42 566.231H1388.41L1416.52 520.445H1451.53L1414.67 577.341L1451.87 638.277H1414.33L1387.57 593.164H1372.42V638.277H1339.25V520.445H1372.42V566.231ZM959.95 614.374H980.66C986.27 614.374 990.7 612.859 993.95 609.829C997.32 606.799 999 602.535 999 597.036C999 586.824 992.89 581.718 980.66 581.718H959.95V614.374ZM230.774 545.694C224.827 545.694 219.44 547.098 214.614 549.903C209.789 552.709 205.973 556.692 203.168 561.854C200.362 566.904 198.96 572.74 198.96 579.361C198.96 585.982 200.362 591.874 203.168 597.036C205.973 602.086 209.789 606.014 214.614 608.819C219.44 611.625 224.827 613.027 230.774 613.027C236.722 613.027 242.109 611.625 246.935 608.819C251.76 606.014 255.575 602.086 258.381 597.036C261.186 591.874 262.589 585.982 262.589 579.361C262.589 572.74 261.186 566.904 258.381 561.854C255.575 556.692 251.76 552.709 246.935 549.903C242.109 547.098 236.722 545.694 230.774 545.694ZM352.456 581.213H370.973C377.818 581.213 382.98 579.754 386.459 576.836C389.938 573.806 391.677 569.542 391.677 564.043C391.677 558.544 389.938 554.28 386.459 551.25C382.98 548.22 377.818 546.705 370.973 546.705H352.456V581.213ZM346.535 348.1H175.79V177.355H346.535V348.1ZM559.04 260.023V348.1H389.646V177.355H475.676L559.04 260.023ZM896.17 348.094H710.59L494.99 134.277H389.646V14.9496H559.657L559.967 14.6406L896.17 348.094ZM1144.37 348.094H958.79L743.19 134.277H680.65V14.9496H807.86L808.17 14.6406L1144.37 348.094ZM1203.51 14.6406C1281.73 14.6406 1345.16 77.8396 1345.17 155.794V157.61C1344.16 234.136 1282.12 295.981 1205.32 296.947H1154.95L1034.93 177.35H1203.51C1215.44 177.349 1225.14 167.692 1225.14 155.794C1225.14 143.897 1215.44 134.24 1203.51 134.239H928.77V14.7566L1203.51 14.6406ZM346.535 134.471H175.789V14.6406H346.535V134.471Z" fill="white"/>
</svg>
