<svg width="1760" height="510" viewBox="0 0 1760 510" fill="none" xmlns="http://www.w3.org/2000/svg">
<path d="M259.111 505H3.00101V248.981H259.111V505ZM577.858 372.936V505H323.775V248.981H452.815L577.858 372.936ZM1083.53 504.992H805.169L481.785 184.389H323.773V5.46402H578.778L579.248 5L1083.53 504.992ZM1455.81 504.992H1177.45L854.067 184.389H760.263V5.46402H951.071L951.532 5L1455.81 504.992ZM1544.52 5C1661.86 5 1757 99.7628 1757 216.652V219.374C1755.49 334.119 1662.44 426.854 1547.24 428.302H1471.69L1291.65 248.973H1544.52C1562.43 248.973 1576.98 234.492 1576.98 216.652C1576.98 198.811 1562.43 184.33 1544.52 184.33H1132.43V5.17401L1544.52 5ZM259.11 184.678H3V5H259.11V184.678Z" fill="currentColor"/>
</svg>
