<svg width="1460" height="960" viewBox="0 0 1460 960" fill="none" xmlns="http://www.w3.org/2000/svg">
<path d="M712.778 811.928C719.509 811.928 725.599 813.434 731.048 816.446C736.496 819.395 740.759 823.498 743.836 828.754C746.913 833.946 748.451 839.812 748.451 846.351C748.451 852.889 746.913 858.787 743.836 864.043C740.759 869.235 736.496 873.338 731.048 876.351C725.599 879.299 719.509 880.77 712.778 880.77C705.984 880.77 699.862 879.299 694.413 876.351C688.964 873.338 684.669 869.203 681.528 863.946C678.452 858.69 676.913 852.825 676.913 846.351C676.913 839.876 678.451 834.01 681.528 828.754C684.669 823.498 688.965 819.395 694.413 816.446C699.862 813.434 705.984 811.928 712.778 811.928ZM960.56 811.928C965.82 811.928 970.63 812.825 974.98 814.62C979.34 816.351 983.06 818.947 986.14 822.408L979.89 828.466C974.82 823.145 968.51 820.485 960.95 820.485C955.95 820.485 951.43 821.607 947.39 823.851C943.35 826.094 940.18 829.203 937.87 833.178C935.63 837.088 934.5 841.479 934.5 846.351C934.5 851.222 935.63 855.646 937.87 859.62C940.18 863.53 943.35 866.607 947.39 868.851C951.43 871.094 955.95 872.216 960.95 872.216C968.45 872.216 974.76 869.523 979.89 864.139L986.14 870.196C983.06 873.658 979.31 876.286 974.89 878.081C970.53 879.876 965.72 880.77 960.47 880.77C953.74 880.77 947.64 879.299 942.2 876.351C936.81 873.338 932.58 869.235 929.5 864.043C926.43 858.787 924.89 852.889 924.89 846.351C924.89 839.812 926.43 833.946 929.5 828.754C932.58 823.498 936.84 819.395 942.29 816.446C947.74 813.434 953.83 811.928 960.56 811.928ZM418.306 871.636H454.748V880H408.689V812.693H418.306V871.636ZM530.294 880H520.198L512.794 863.175H477.024L469.621 880H459.717L490.198 812.693H499.717L530.294 880ZM561.67 867.405L580.612 812.693H589.459L608.017 867.693L626.574 812.693H635.709L613.209 880H603.112L584.747 826.251L566.382 880H556.093L533.593 812.693H543.497L561.67 867.405ZM814.494 821.059H776.609V844.521H810.359V852.79H776.609V880H766.994V812.693H814.494V821.059ZM879.376 821.059H841.491V844.521H875.241V852.79H841.491V880H831.876V812.693H879.376V821.059ZM906.37 880H896.76V812.693H906.37V880ZM1051.2 821.059H1013.32V841.732H1047.07V849.905H1013.32V871.636H1052.55V880H1003.7V812.693H1051.2V821.059ZM712.778 820.485C707.843 820.485 703.356 821.607 699.317 823.851C695.343 826.094 692.201 829.203 689.894 833.178C687.65 837.088 686.528 841.479 686.528 846.351C686.528 851.222 687.65 855.646 689.894 859.62C692.201 863.53 695.343 866.607 699.317 868.851C703.356 871.094 707.843 872.216 712.778 872.216C717.714 872.216 722.138 871.094 726.048 868.851C730.022 866.607 733.131 863.53 735.375 859.62C737.683 855.646 738.836 851.222 738.836 846.351C738.836 841.479 737.683 837.088 735.375 833.178C733.131 829.203 730.022 826.094 726.048 823.851C722.138 821.607 717.714 820.485 712.778 820.485ZM480.391 855.482H509.429L494.909 822.501L480.391 855.482ZM659.464 697.79C664.4 697.79 668.823 698.88 672.733 701.06C676.643 703.239 679.688 706.284 681.867 710.194C684.111 714.105 685.233 718.624 685.233 723.752C685.233 728.88 684.111 733.431 681.867 737.405C679.688 741.315 676.643 744.361 672.733 746.54C668.823 748.719 664.4 749.81 659.464 749.81C655.81 749.81 652.445 749.104 649.368 747.694C646.355 746.284 643.791 744.232 641.676 741.54V767.887H632.444V698.271H641.291V706.348C643.342 703.527 645.938 701.412 649.079 700.002C652.22 698.528 655.682 697.79 659.464 697.79ZM424.902 697.79C431.953 697.79 437.338 699.521 441.056 702.982C444.838 706.444 446.729 711.604 446.729 718.463V749.232H437.979V742.502C436.441 744.874 434.229 746.7 431.345 747.982C428.524 749.2 425.158 749.81 421.248 749.81C415.543 749.809 410.959 748.431 407.498 745.675C404.101 742.918 402.402 739.296 402.402 734.81C402.402 730.323 404.037 726.732 407.306 724.04C410.575 721.284 415.768 719.905 422.883 719.905H437.498V718.079C437.498 714.105 436.345 711.06 434.037 708.944C431.729 706.829 428.332 705.771 423.845 705.771C420.832 705.771 417.883 706.284 414.998 707.31C412.114 708.271 409.677 709.585 407.69 711.252L403.845 704.329C406.473 702.214 409.614 700.61 413.268 699.521C416.921 698.367 420.8 697.79 424.902 697.79ZM718.96 697.79C726.011 697.79 731.396 699.521 735.114 702.982C738.896 706.444 740.787 711.604 740.787 718.463V749.232H732.037V742.502C730.499 744.874 728.287 746.7 725.402 747.982C722.582 749.2 719.217 749.81 715.307 749.81C709.602 749.81 705.018 748.431 701.557 745.675C698.159 742.918 696.46 739.297 696.46 734.81C696.46 730.322 698.095 726.732 701.364 724.04C704.633 721.284 709.826 719.905 716.94 719.905H731.557V718.079C731.557 714.105 730.402 711.06 728.095 708.944C725.787 706.829 722.39 705.771 717.902 705.771C714.89 705.771 711.941 706.284 709.057 707.31C706.172 708.271 703.736 709.585 701.749 711.252L697.902 704.329C700.53 702.214 703.672 700.61 707.325 699.521C710.979 698.367 714.858 697.79 718.96 697.79ZM936.66 697.79C941.54 697.79 945.86 698.912 949.64 701.155C953.49 703.335 956.47 706.412 958.59 710.387C960.77 714.361 961.86 718.912 961.86 724.04C961.86 724.745 961.79 725.675 961.66 726.829H920.32C920.89 731.316 922.85 734.938 926.18 737.694C929.58 740.386 933.78 741.732 938.78 741.732C944.87 741.732 949.77 739.681 953.49 735.579L958.59 741.54C956.28 744.232 953.39 746.284 949.93 747.694C946.54 749.104 942.72 749.81 938.49 749.81C933.11 749.81 928.33 748.719 924.16 746.54C920 744.296 916.76 741.187 914.45 737.213C912.21 733.239 911.09 728.752 911.09 723.752C911.09 718.816 912.18 714.361 914.36 710.387C916.6 706.412 919.65 703.335 923.49 701.155C927.4 698.912 931.79 697.79 936.66 697.79ZM1036.04 697.79C1039.44 697.79 1042.84 698.207 1046.23 699.04C1049.63 699.873 1052.42 700.995 1054.6 702.405L1050.66 709.713C1046.49 707.021 1041.59 705.675 1035.95 705.675C1032.04 705.675 1029.06 706.316 1027 707.598C1024.95 708.88 1023.93 710.579 1023.93 712.694C1023.93 714.361 1024.5 715.675 1025.66 716.637C1026.81 717.598 1028.22 718.303 1029.89 718.752C1031.62 719.201 1034.02 719.713 1037.1 720.29C1041.2 720.995 1044.5 721.764 1047 722.598C1049.57 723.367 1051.75 724.714 1053.54 726.637C1055.34 728.56 1056.23 731.252 1056.23 734.713C1056.23 739.328 1054.25 743.014 1050.27 745.771C1046.36 748.463 1041.01 749.81 1034.21 749.81C1030.05 749.81 1026.04 749.264 1022.2 748.175C1018.35 747.021 1015.34 745.578 1013.16 743.848L1017 736.54C1019.25 738.143 1021.97 739.425 1025.18 740.387C1028.38 741.348 1031.62 741.829 1034.89 741.829C1042.97 741.829 1047 739.52 1047 734.905C1047 733.367 1046.46 732.149 1045.37 731.252C1044.28 730.355 1042.9 729.714 1041.23 729.329C1039.63 728.88 1037.32 728.4 1034.31 727.887C1030.21 727.246 1026.84 726.508 1024.21 725.675C1021.65 724.841 1019.44 723.431 1017.58 721.444C1015.72 719.457 1014.79 716.668 1014.79 713.079C1014.79 708.464 1016.72 704.777 1020.56 702.021C1024.41 699.2 1029.57 697.79 1036.04 697.79ZM815.062 698.27H829.678V705.865H815.062V733.462C815.063 736.218 815.735 738.333 817.081 739.808C818.491 741.282 820.479 742.019 823.043 742.02C825.863 742.02 828.268 741.218 830.255 739.615L833.139 746.25C831.793 747.404 830.126 748.301 828.139 748.942C826.152 749.519 824.1 749.808 821.985 749.808C816.857 749.808 812.883 748.429 810.062 745.673C807.242 742.917 805.831 738.975 805.831 733.847V705.865H797.178V698.27H805.831V687.115H815.062V698.27ZM583.388 749.229H574.542V741.152C572.491 743.973 569.894 746.12 566.753 747.595C563.612 749.069 560.151 749.807 556.369 749.807C551.433 749.807 547.01 748.717 543.1 746.537C539.189 744.358 536.113 741.313 533.869 737.402C531.69 733.428 530.6 728.877 530.6 723.749C530.6 718.621 531.69 714.102 533.869 710.191C536.113 706.281 539.189 703.236 543.1 701.057C547.01 698.877 551.433 697.787 556.369 697.787C560.023 697.787 563.388 698.492 566.465 699.902C569.542 701.248 572.106 703.268 574.157 705.96V677.884H583.388V749.229ZM493.907 697.79C500.382 697.79 505.51 699.681 509.292 703.463C513.138 707.181 515.061 712.662 515.062 719.905V749.232H505.83V720.963C505.83 716.027 504.644 712.31 502.272 709.81C499.901 707.31 496.503 706.06 492.08 706.06C487.08 706.06 483.137 707.534 480.253 710.482C477.369 713.367 475.927 717.534 475.927 722.982V749.232H466.695V698.271H475.542V705.963C477.401 703.335 479.901 701.315 483.042 699.905C486.247 698.495 489.869 697.79 493.907 697.79ZM788.157 706.732C787.644 706.668 786.939 706.637 786.042 706.637C781.042 706.637 777.099 708.143 774.215 711.155C771.395 714.104 769.984 718.335 769.984 723.848V749.232H760.754V698.271H769.6V706.829C771.202 703.881 773.574 701.636 776.715 700.098C779.856 698.559 783.67 697.79 788.157 697.79V706.732ZM874.395 697.79C880.869 697.79 885.997 699.681 889.78 703.463C893.63 707.181 895.55 712.662 895.55 719.905V749.232H886.32V720.963C886.32 716.027 885.132 712.31 882.76 709.81C880.388 707.31 876.99 706.06 872.567 706.06C867.568 706.06 863.626 707.534 860.741 710.482C857.857 713.367 856.414 717.534 856.414 722.982V749.232H847.184V698.271H856.029V705.963C857.888 703.335 860.388 701.315 863.529 699.905C866.734 698.495 870.356 697.79 874.395 697.79ZM1004.96 706.732C1004.45 706.668 1003.74 706.637 1002.85 706.637C997.85 706.637 993.9 708.143 991.02 711.155C988.2 714.104 986.79 718.335 986.79 723.848V749.232H977.56V698.271H986.4V706.829C988.01 703.88 990.38 701.636 993.52 700.098C996.66 698.559 1000.47 697.79 1004.96 697.79V706.732ZM423.268 726.54C415.447 726.54 411.537 729.168 411.537 734.425C411.537 736.989 412.53 739.008 414.518 740.482C416.505 741.957 419.262 742.694 422.787 742.694C426.312 742.694 429.358 741.925 431.922 740.387C434.486 738.784 436.344 736.54 437.498 733.655V726.54H423.268ZM717.325 726.54C709.505 726.54 705.595 729.169 705.595 734.425C705.595 736.989 706.588 739.008 708.575 740.482C710.562 741.957 713.319 742.694 716.845 742.694C720.37 742.694 723.415 741.925 725.979 740.387C728.544 738.784 730.403 736.54 731.557 733.655V726.54H717.325ZM658.694 705.867C655.489 705.867 652.572 706.636 649.944 708.175C647.38 709.649 645.329 711.733 643.791 714.425C642.317 717.117 641.579 720.226 641.579 723.752C641.579 727.277 642.317 730.419 643.791 733.175C645.265 735.867 647.316 737.982 649.944 739.521C652.572 740.995 655.489 741.732 658.694 741.732C661.963 741.732 664.88 740.995 667.444 739.521C670.072 737.982 672.124 735.867 673.599 733.175C675.137 730.419 675.906 727.277 675.906 723.752C675.906 720.226 675.137 717.117 673.599 714.425C672.124 711.668 670.073 709.553 667.444 708.079C664.88 706.605 661.964 705.867 658.694 705.867ZM557.138 705.864C553.869 705.864 550.92 706.601 548.292 708.075C545.728 709.55 543.676 711.666 542.138 714.422C540.663 717.114 539.927 720.224 539.927 723.749C539.927 727.274 540.663 730.416 542.138 733.172C543.676 735.864 545.728 737.979 548.292 739.518C550.92 740.992 553.869 741.729 557.138 741.729C560.343 741.729 563.26 740.992 565.888 739.518C568.516 737.979 570.568 735.864 572.042 733.172C573.516 730.416 574.253 727.274 574.253 723.749C574.253 720.223 573.516 717.114 572.042 714.422C570.568 711.665 568.516 709.55 565.888 708.075C563.26 706.601 560.343 705.864 557.138 705.864ZM936.66 705.579C932.24 705.579 928.52 706.925 925.51 709.617C922.56 712.309 920.83 715.836 920.32 720.194H953.01C952.5 715.899 950.73 712.405 947.72 709.713C944.77 706.957 941.09 705.579 936.66 705.579ZM422.004 549.271C431.965 549.271 440.895 551.379 448.792 555.597C456.779 559.815 463.017 565.648 467.504 573.097C472.081 580.545 474.369 588.937 474.369 598.271C474.369 607.604 472.081 615.995 467.504 623.443C463.017 630.892 456.779 636.725 448.792 640.943C440.895 645.161 431.965 647.271 422.004 647.271C412.043 647.27 403.068 645.161 395.081 640.943C387.184 636.725 380.946 630.892 376.369 623.443C371.882 615.995 369.639 607.604 369.639 598.271C369.639 588.937 371.882 580.545 376.369 573.097C380.946 565.648 387.184 559.815 395.081 555.597C403.068 551.379 412.043 549.271 422.004 549.271ZM238.99 645.387H212.336V551.155H238.99V645.387ZM288.646 586.56H324.991V551.155H351.646V645.387H324.991V608.637H288.646V645.387H261.991V551.155H288.646V586.56ZM535.445 551.155C543.971 551.155 551.374 552.591 557.656 555.463C563.938 558.245 568.785 562.284 572.195 567.579C575.605 572.784 577.31 578.931 577.311 586.021C577.311 592.841 575.695 598.809 572.464 603.925C569.323 608.95 564.791 612.899 558.868 615.771L579.195 645.387H550.656L533.561 620.348H519.021V645.387H492.368V551.155H535.445ZM694.324 605.54L726.632 551.155H748.574L748.844 645.387H724.344L724.074 595.444L699.844 636.098H687.997L663.901 596.79V645.387H639.267V551.155H661.209L694.324 605.54ZM845.646 571.752H798.127V587.637H839.992V607.56H798.127V624.79H847.396V645.387H771.742V551.155H845.646V571.752ZM892.88 624.252H937.84V645.387H866.226V551.155H892.88V624.252ZM1015.96 601.367V551.155H1042.08V645.387H1020.14L978.54 595.175V645.387H952.43V551.155H974.37L1015.96 601.367ZM1103.29 588.579L1125.63 551.155H1151.48L1115.4 611.598V645.387H1088.75V611.194L1052.8 551.155H1080.94L1103.29 588.579ZM1188.29 590.329L1224.77 551.155H1254.11L1215.61 592.887L1256.13 645.387H1225.17L1198.25 611.194L1188.29 621.829V645.387H1161.9V551.155H1188.29V590.329ZM422.004 571.347C417.248 571.347 412.94 572.468 409.081 574.712C405.222 576.955 402.17 580.142 399.927 584.271C397.683 588.309 396.562 592.976 396.562 598.271C396.562 603.565 397.683 608.276 399.927 612.404C402.17 616.443 405.222 619.585 409.081 621.828C412.94 624.072 417.248 625.193 422.004 625.193C426.76 625.193 431.068 624.071 434.927 621.828C438.786 619.585 441.837 616.443 444.081 612.404C446.324 608.276 447.446 603.565 447.446 598.271C447.446 592.976 446.324 588.309 444.081 584.271C441.837 580.142 438.786 576.956 434.927 574.712C431.068 572.469 426.76 571.347 422.004 571.347ZM519.021 599.752H533.83C539.304 599.752 543.432 598.585 546.214 596.252C548.996 593.829 550.388 590.418 550.388 586.021C550.388 581.623 548.996 578.213 546.214 575.79C543.432 573.367 539.304 572.155 533.83 572.155H519.021V599.752ZM423.82 413.344H287.282V276.792H423.82V413.344ZM593.752 342.905V413.344H458.295V276.792H527.089L593.752 342.905ZM863.336 413.339H714.937L542.534 242.341H458.294V146.909H594.245L594.492 146.662L863.336 413.339ZM1061.81 413.339H913.41L741.009 242.341H690.996V146.909H792.72L792.968 146.662L1061.81 413.339ZM1109.11 146.662C1171.66 146.662 1222.38 197.204 1222.38 259.548V261C1221.58 322.2 1171.97 371.662 1110.56 372.435H1070.28L974.3 276.787H1109.11C1118.65 276.787 1126.4 269.063 1126.4 259.548C1126.4 250.033 1118.65 242.31 1109.11 242.31H889.41V146.754L1109.11 146.662ZM423.82 242.495H287.282V146.662H423.82V242.495Z" fill="white"/>
</svg>
