<svg width="150" height="150" viewBox="0 0 150 150" fill="none" xmlns="http://www.w3.org/2000/svg">
<path d="M30.6508 92.8571H12.3572V74.57H30.6508V92.8571ZM53.4184 83.424V92.8571H35.2696V74.57H44.4868L53.4184 83.424ZM89.5378 92.8565H69.6549L46.5561 69.9563H35.2695V57.176H53.4842L53.5177 57.1428L89.5378 92.8565ZM116.129 92.8565H96.2466L73.1476 69.9563H66.4474V57.176H80.0765L80.1094 57.1428L116.129 92.8565ZM122.466 57.1428C130.847 57.1428 137.643 63.9116 137.643 72.2608V72.4552C137.535 80.6513 130.888 87.2753 122.66 87.3787H117.263L104.404 74.5694H122.466C123.745 74.5694 124.784 73.5351 124.784 72.2608C124.784 70.9864 123.745 69.9521 122.466 69.9521H93.0304V57.1553L122.466 57.1428ZM30.6507 69.9769H12.3571V57.1428H30.6507V69.9769Z" fill="#003366"/>
</svg>
