<svg width="32" height="32" viewBox="0 0 32 32" fill="none" xmlns="http://www.w3.org/2000/svg">
<path d="M21.3337 26.6665V5.33317C21.3337 4.62593 21.0527 3.94765 20.5526 3.44755C20.0525 2.94746 19.3742 2.6665 18.667 2.6665H13.3337C12.6264 2.6665 11.9481 2.94746 11.448 3.44755C10.9479 3.94765 10.667 4.62593 10.667 5.33317V26.6665" stroke="white" stroke-width="2" stroke-linecap="round" stroke-linejoin="round"/>
<path d="M26.667 8H5.33366C3.8609 8 2.66699 9.19391 2.66699 10.6667V24C2.66699 25.4728 3.8609 26.6667 5.33366 26.6667H26.667C28.1398 26.6667 29.3337 25.4728 29.3337 24V10.6667C29.3337 9.19391 28.1398 8 26.667 8Z" stroke="white" stroke-width="2" stroke-linecap="round" stroke-linejoin="round"/>
</svg>
