<svg width="40" height="40" viewBox="0 0 40 40" fill="none" xmlns="http://www.w3.org/2000/svg">
<path d="M32.0837 10C32.0836 9.88977 32.0395 9.78407 31.9617 9.70605C31.8835 9.62791 31.7773 9.58398 31.6667 9.58398C27.934 9.58398 23.5093 7.41659 20.4548 4.75V4.75098C20.3281 4.64269 20.1665 4.58301 19.9998 4.58301C19.8332 4.58309 19.6723 4.64279 19.5457 4.75098L19.5447 4.75C16.5081 7.39876 12.0673 9.58386 8.33374 9.58398C8.22323 9.58398 8.11696 9.62791 8.03882 9.70605C7.96085 9.78408 7.91686 9.8897 7.91675 10V21.667C7.91675 25.5035 9.24477 28.3162 11.3464 30.4688C13.3487 32.5195 16.1029 34.0196 19.2283 35.1621L19.8582 35.3857L19.8865 35.3955C19.9763 35.429 20.075 35.4302 20.1658 35.3994C23.5387 34.2227 26.5228 32.6593 28.655 30.4717C30.7554 28.3167 32.0837 25.5035 32.0837 21.667V10ZM34.5837 21.667C34.5837 26.1638 32.9947 29.601 30.4451 32.2168C27.9296 34.7976 24.5342 36.5242 20.9783 37.7637L20.9675 37.7676C20.3415 37.9796 19.6629 37.9714 19.0417 37.7471V37.749C15.4764 36.5178 12.0757 34.7951 9.55737 32.2158C7.00492 29.6017 5.41675 26.1638 5.41675 21.667V10C5.41686 9.22666 5.72443 8.48535 6.27124 7.93848C6.81822 7.3915 7.56019 7.08398 8.33374 7.08398C11.2624 7.08385 15.1479 5.27293 17.9109 2.85938L17.9216 2.84961C18.5009 2.35481 19.2379 2.08309 19.9998 2.08301C20.6666 2.08301 21.3146 2.29115 21.8542 2.6748L22.0789 2.84961L22.0896 2.85938C24.8682 5.28861 28.7371 7.08398 31.6667 7.08398C32.4403 7.08398 33.1823 7.3915 33.7292 7.93848C34.276 8.48533 34.5836 9.22674 34.5837 10V21.667Z" fill="#ebc977"/>
<path d="M24.1163 15.7831C24.6044 15.295 25.3957 15.295 25.8839 15.7831C26.372 16.2713 26.372 17.0625 25.8839 17.5507L19.2169 24.2177C18.7287 24.7055 17.9373 24.7057 17.4493 24.2177L14.1163 20.8837C13.6283 20.3955 13.6282 19.6042 14.1163 19.1161C14.6044 18.6282 15.3957 18.6282 15.8839 19.1161L18.3331 21.5653L24.1163 15.7831Z" fill="#ebc977"/>
</svg>
