<svg xmlns="http://www.w3.org/2000/svg" width="24" height="24" viewBox="0 0 24 24" fill="none"><path fill-rule="evenodd" clip-rule="evenodd" d="M1 7.41667C1 3.87284 3.87284 1 7.41667 1H16.5833C20.1272 1 23 3.87284 23 7.41667V16.5833C23 20.1272 20.1272 23 16.5833 23H7.41667C3.87284 23 1 20.1272 1 16.5833V7.41667ZM17.5 12C17.5 15.0376 15.0376 17.5 12 17.5C8.96243 17.5 6.5 15.0376 6.5 12C6.5 8.96243 8.96243 6.5 12 6.5C15.0376 6.5 17.5 8.96243 17.5 12ZM17.9583 7.41667C18.7177 7.41667 19.3333 6.80106 19.3333 6.04167C19.3333 5.28227 18.7177 4.66667 17.9583 4.66667C17.199 4.66667 16.5833 5.28227 16.5833 6.04167C16.5833 6.80106 17.199 7.41667 17.9583 7.41667Z" fill="black"/><path d="M16 12C16 14.2091 14.2091 16 12 16C9.79086 16 8 14.2091 8 12C8 9.79086 9.79086 8 12 8C14.2091 8 16 9.79086 16 12Z" fill="black"/></svg>