<svg xmlns="http://www.w3.org/2000/svg" width="32" height="32" viewBox="0 0 32 32" fill="none"><path d="M21.333 21.3332L25.333 10.6665L29.333 21.3332C28.173 22.1998 26.773 22.6665 25.333 22.6665C23.893 22.6665 22.493 22.1998 21.333 21.3332Z" stroke="white" stroke-width="2" stroke-linecap="round" stroke-linejoin="round"/><path d="M2.66699 21.3332L6.66699 10.6665L10.667 21.3332C9.50699 22.1998 8.10699 22.6665 6.66699 22.6665C5.22699 22.6665 3.82699 22.1998 2.66699 21.3332Z" stroke="white" stroke-width="2" stroke-linecap="round" stroke-linejoin="round"/><path d="M9.33301 28H22.6663" stroke="white" stroke-width="2" stroke-linecap="round" stroke-linejoin="round"/><path d="M16 4V28" stroke="white" stroke-width="2" stroke-linecap="round" stroke-linejoin="round"/><path d="M4 9.33317H6.66667C9.33333 9.33317 13.3333 7.99984 16 6.6665C18.6667 7.99984 22.6667 9.33317 25.3333 9.33317H28" stroke="white" stroke-width="2" stroke-linecap="round" stroke-linejoin="round"/></svg>