<svg xmlns="http://www.w3.org/2000/svg" width="24" height="24" viewBox="0 0 24 24" fill="none"><path d="M21.5936 3.14513L2.02282 10.4988C0.702089 10.9657 0.702089 11.7828 1.78269 12.0163L6.70541 13.5337L8.62647 19.1365C8.8666 19.7202 8.74653 19.9536 9.34687 19.9536C9.82713 19.9536 10.0673 19.7202 10.3074 19.4867C10.4275 19.37 11.5081 18.3195 12.7087 17.1522L17.7515 20.7707C18.712 21.2376 19.3124 21.0042 19.5525 19.9536L22.9144 4.66256C23.2746 3.37858 22.4341 2.67823 21.5936 3.14513ZM19.0722 6.6469L9.70707 14.9344L9.34687 18.7864L7.4258 13.1835L18.4719 6.41345C18.9522 6.06327 19.4324 6.29672 19.0722 6.6469Z" fill="black"/></svg>