<svg xmlns="http://www.w3.org/2000/svg" width="24" height="24" viewBox="0 0 24 24" fill="none"><path fill-rule="evenodd" clip-rule="evenodd" d="M18.4031 16.5332C18.138 17.2836 17.0842 17.9044 16.2438 18.086C15.6685 18.2081 14.9183 18.3047 12.3905 17.2572C9.5514 16.081 5.609 11.8911 5.609 9.10283C5.609 7.6834 6.4274 6.03057 7.8585 6.03057C8.5471 6.03057 8.6989 6.04399 8.9255 6.58755C9.1906 7.22795 9.8374 8.80574 9.9144 8.96748C10.2323 9.63098 9.59099 10.0194 9.12569 10.5971C8.97719 10.7709 8.8089 10.9589 8.997 11.2824C9.184 11.5993 9.8308 12.6535 10.7812 13.4996C12.0088 14.5933 13.0043 14.9425 13.3607 15.0911C13.6258 15.2011 13.9426 15.1755 14.1362 14.9686C14.3815 14.7034 14.6862 14.2635 14.9964 13.8299C15.2153 13.5196 15.4936 13.4809 15.7851 13.5909C15.982 13.6591 18.4845 14.8213 18.5901 15.0073C18.6682 15.1426 18.6682 15.7828 18.4031 16.5332ZM12.0022 1H11.9967C5.93239 1 1 5.93389 1 12C1 14.4053 1.77551 16.6369 3.09441 18.4469L1.72381 22.5343L5.95111 21.1835C7.69021 22.3344 9.7659 23 12.0022 23C18.0665 23 23 18.0661 23 12C23 5.93389 18.0665 1 12.0022 1Z" fill="black"/></svg>